{"title":"Appula Apparao (1991) DvdRip Telugu Movie - teluguppls","uid":6491834,"size":733479277,"categoryP":"video","categoryS":"movies","magnet":"?xt=urn:btih:a01c9356c2fe3d4cc6f000038b8d61dbb440be51&amp;dn=Appula+Apparao+%281991%29+DvdRip+Telugu+Movie+-+teluguppls&amp;tr=udp%3A%2F%2Ftracker.openbittorrent.com%3A80&amp;tr=udp%3A%2F%2Fopen.demonii.com%3A1337&amp;tr=udp%3A%2F%2Ftracker.coppersurfer.tk%3A6969&amp;tr=udp%3A%2F%2Fexodus.desync.com%3A6969","seeders":1,"leechers":0,"uploader":"n1212","files":2,"time":1308912510,"description":"Appula Apparao (1991) DvdRip Telugu Movie - teluguppls\n\n\nGeneral\n\nFormat                           : MPEG-4\nFormat profile                   : Base Media\nCodec ID                         : isom\nFile size                        : 699 MiB\nDuration                         : 2h 19mn\nOverall bit rate                 : 700 Kbps\n\n\nVideo\n\nFormat                           : AVC\nFormat/Info                      : Advanced Video Codec\nFormat profile                   : &lt;a class=&quot;__cf_email__&quot; href=&quot;/cdn-cgi/l/email-protection&quot; data-cfemail=&quot;de96b7b9b69e92ebf0ef&quot;&gt;[email&amp;#160;protected]&lt;/a&gt;&lt;script cf-hash='f9e31' type=&quot;text/javascript&quot;&gt;\n/* &lt;![CDATA[ */!function(){try{var t=&quot;currentScript&quot;in document?document.currentScript:function(){for(var t=document.getElementsByTagName(&quot;script&quot;),e=t.length;e--;)if(t[e].getAttribute(&quot;cf-hash&quot;))return t[e]}();if(t&amp;&amp;t.previousSibling){var e,r,n,i,c=t.previousSibling,a=c.getAttribute(&quot;data-cfemail&quot;);if(a){for(e=&quot;&quot;,r=parseInt(a.substr(0,2),16),n=2;a.length-n;n+=2)i=parseInt(a.substr(n,2),16)^r,e+=String.fromCharCode(i);e=document.createTextNode(e),c.parentNode.replaceChild(e,c)}}}catch(u){}}();/* ]]&gt; */&lt;/script&gt;\nFormat settings, CABAC           : Yes\nFormat settings, ReFrames        : 5 frames\nCodec ID                         : avc1\nCodec ID/Info                    : Advanced Video Coding\nDuration                         : 2h 19mn\nBit rate mode                    : Variable\nBit rate                         : 648 Kbps\nMaximum bit rate                 : 2 808 Kbps\nWidth                            : 608 pixels\nHeight                           : 384 pixels\nDisplay aspect ratio             : 1.583\nFrame rate mode                  : Constant\nFrame rate                       : 23.976 fps\nColor space                      : YUV\nChroma subsampling               : 4:2:0\nBit depth                        : 8 bits\nScan type                        : Progressive\nBits/(Pixel*Frame)               : 0.116\nStream size                      : 648 MiB (93%)\n\n\nAudio\n\nFormat                           : AAC\nFormat/Info                      : Advanced Audio Codec\nFormat profile                   : HE-AACv2 / HE-AAC / LC\nCodec ID                         : 40\nDuration                         : 2h 19mn\nBit rate mode                    : Variable\nBit rate                         : 48.0 Kbps\nMaximum bit rate                 : 56.8 Kbps\nChannel(s)                       : 2 channels / 1 channel / 1 channel\nChannel positions                : Front: L R / Front: C / Front: C\nSampling rate                    : 48.0 KHz / 48.0 KHz / 24.0 KHz\nCompression mode                 : Lossy\nStream size                      : 48.7 MiB (7%)\n\n\nPLEASE SEEEEEEEEEEEEEEEEEDDDDDDDDDDDDDDDDDDDDDD............................\n\nPOST A COMMENT PLZZZ......................","torrent":{"xt":"urn:btih:a01c9356c2fe3d4cc6f000038b8d61dbb440be51","amp;dn":"Appula+Apparao+%281991%29+DvdRip+Telugu+Movie+-+teluguppls","amp;tr":["udp%3A%2F%2Ftracker.openbittorrent.com%3A80","udp%3A%2F%2Fopen.demonii.com%3A1337","udp%3A%2F%2Ftracker.coppersurfer.tk%3A6969","udp%3A%2F%2Fexodus.desync.com%3A6969"],"infoHash":"a01c9356c2fe3d4cc6f000038b8d61dbb440be51","infoHashBuffer":{"type":"Buffer","data":[160,28,147,86,194,254,61,76,198,240,0,3,139,141,97,219,180,64,190,81]},"announce":[],"urlList":[]}}